<?xml version="1.0" encoding="UTF-8"?>
<svg id="Layer_2" data-name="Layer 2" xmlns="http://www.w3.org/2000/svg" viewBox="0 0 453.82 674.67" height="800px" width="1000px">
  <defs>
    <style>
      .cls-1 {
        fill: #fff;
        stroke: #231f20;
        stroke-miterlimit: 10;
      }
    </style>
  </defs>
  <g id="Layer_1-2" data-name="Layer 1">
    <path class="pectoral" d="m98.49,147.41c-4.73-.71-8.85.76-8.9.49-.05-.23,2.11-.94,4.24-1.41,2.11-.47,3.29-.49,4.66-.66,4.04-.5,7.09-1.96,8.89-2.82,2.7-1.29,4.58-2.65,6.12-3.76.85-.62,2.32-1.69,4.05-3.29.72-.67,1.34-1.31,2.59-2.59,1.32-1.36,1.98-2.04,2.69-2.87,1.15-1.36,1.1-1.5,2.37-3.04.94-1.14,1.69-1.93,2.59-2.89,1.51-1.6,2.83-2.88,3.32-3.33,1.69-1.58,5.58-4.69,10.37-7.02,15.24-7.44,29.2-2.29,30.77-1.51,1.01.5,1.84,1.17,1.84,1.17,1.15.77,2.02,1.53,2.34,2.68.02.08.02.1.17,1.67.09.98.14,1.56.17,1.84.1,1.19.07,2.17,0,4.01-.11,3.11-.14,3.35-.17,4.35-.04,1.46-.02,2.11,0,4.85.04,4.4.05,6.6,0,8.53-.09,3.18-.13,4.77-.33,5.85-1.15,6.21-5.09,10.28-6.19,11.37-2.03,2.04-3.88,3.12-5.69,4.18-6.68,3.92-13.03,4.8-16.39,5.02-1.27.08-4.21.21-8.03-.33,0,0-15.06-2.16-29.76-15.98,0,0-.07-.06-.07-.06,0,0,.07.06.07.06-.01.02-1.97-1.96-4.62-2.98-.59-.23-1.55-.43-3.48-.83-1.26-.26-2.79-.55-3.62-.68Z"/>
    <path class="bicep" d="m96.8,148.36c-2.28-.13-4.22,0-5.69.17-1.2.14-2.89.35-5.02,1-1.47.45-2.53.93-4.18,1.67-1.44.65-2.26,1.02-3.34,1.67-1.01.61-2.15,1.3-3.34,2.51-.69.7-1.3,1.58-2.51,3.34-.68,1-1.21,1.76-1.84,2.84-.74,1.28-.82,1.59-1.84,3.51-.92,1.73-.99,1.73-1.67,3.01-.93,1.75-1.49,3.08-2.17,4.68-.33.78-1.12,2.67-2.01,5.18-.39,1.1-.76,2.29-1.51,4.68-.74,2.39-.88,2.92-1,3.51-.21,1-.31,1.96-.5,3.85-.23,2.24-.34,3.36-.33,4.18.02,1.47.03,2.92.67,4.68.66,1.84,1.66,3.06,2.17,3.68,0,0,1.18,1.42,2.51,2.34,5.09,3.53,13.23-2.19,14.72-3.18,2.36-1.58,4.02-3.28,6.52-5.85,1.13-1.16,2.78-2.86,4.68-5.35,2.39-3.13,2.64-4.18,4.68-6.36,1.72-1.83,2.65-2.26,4.35-3.68,1.63-1.37,6.37-5.33,8.36-11.54,1.22-3.81.97-7.06.67-10.87-.22-2.75-.34-4.16-1.17-5.52-2.7-4.43-9.89-4.24-11.21-4.18"/>
    <path class="bicep" d="m256.42,148.37c2.28-.13,4.22,0,5.69.17,1.2.14,2.89.35,5.02,1,1.47.45,2.53.93,4.18,1.67,1.44.65,2.26,1.02,3.34,1.67,1.01.61,2.15,1.3,3.34,2.51.69.7,1.3,1.58,2.51,3.34.68,1,1.21,1.76,1.84,2.84.74,1.28.82,1.59,1.84,3.51.92,1.73.99,1.73,1.67,3.01.93,1.75,1.49,3.08,2.17,4.68.33.78,1.12,2.67,2.01,5.18.39,1.1.76,2.29,1.51,4.68.74,2.39.88,2.92,1,3.51.21,1,.31,1.96.5,3.85.23,2.24.34,3.36.33,4.18-.02,1.47-.03,2.92-.67,4.68-.66,1.84-1.66,3.06-2.17,3.68,0,0-1.18,1.42-2.51,2.34-5.09,3.53-13.23-2.19-14.72-3.18-2.36-1.58-4.02-3.28-6.52-5.85-1.13-1.16-2.78-2.86-4.68-5.35-2.39-3.13-2.64-4.18-4.68-6.36-1.72-1.83-2.65-2.26-4.35-3.68-1.63-1.37-6.37-5.33-8.36-11.54-1.22-3.81-.97-7.06-.67-10.87.22-2.75.34-4.16,1.17-5.52,2.7-4.43,9.89-4.24,11.21-4.18"/>
    <path class="forearms" d="m46.03,199.78c-2.3,2.4-2.61,2.52-3.67,3.67-1.59,1.71-2.5,3.16-6.92,11.72-1.92,3.73-2.89,5.59-3.39,6.64-2.18,4.54-2.9,6.6-5.08,11.58-2.48,5.66-3.21,6.26-4.38,9.46-.32.86-.92,2.61-1.98,4.94-.83,1.85-1.69,3.53-1.69,3.53-1.19,2.33-1.58,2.8-2.12,4.24-.57,1.54-.86,2.31-.85,3.25.03,2.53,2.07,5.01,4.52,6.07,2.05.89,5.06,1.06,6.64-.42.54-.51.36-.69,1.41-2.12.35-.48,1.1-1.45,2.68-2.96,1.74-1.66,3.22-2.77,3.67-3.11,4.14-3.11,3.71-3.24,8.19-6.64,4.34-3.29,4.81-3.22,7.62-5.65,1.91-1.65,3.19-2.99,4.8-4.66,2.12-2.21,4.54-4.92,7.06-8.19,2.07-2.68,3.1-4.02,4.09-5.93.83-1.59.95-2.19,2.26-4.66.72-1.36.8-1.39,2.4-4.24,1.84-3.28,1.76-3.26,2.4-4.24,1.29-1.95,2.96-3.95,2.96-3.95.34-.4,4.13-4.9,3.7-5.36-.3-.32-2.11,1.87-5.27,3.01-3.39,1.22-8.36,1.24-11.86-1.69-2.18-1.83-3-4.16-3.39-5.27-1.28-3.64-.74-7.34-.56-8.47.36-2.29.97-3.53.56-3.76-.51-.3-1.8,1.55-5.2,4.75-2.16,2.04-2.2,1.82-4.09,3.67-1.8,1.76-2.18,2.36-4.52,4.8Z"/>
    <path class="hand" d="m27.12,264.44c-.38-.02-.32,1.04-1.48,1.67-.28.15-.48.16-2.64,0-1.99-.14-2.16-.17-2.45-.28-.71-.27-1.19-.72-2.11-1.61-1.04-.99-1.56-1.49-1.88-2.07-1.07-1.95-.1-3.83-.59-4.02-.61-.24-2.45,2.44-3.6,5.16-.51,1.2-.86,2.38-1.41,4.14-.66,2.1-.56,2.1-1.04,3.48-.37,1.08-.92,2.49-1.69,4.05-.35.71-.45.85-2.16,3.76-.18.3-1.26,2.15-2.45,4.24-1.57,2.76-1.73,3.14-1.88,3.67-.09.32-.27.99-.47,3.86-.12,1.68-.16,2.85-.19,3.67-.13,3.42-.27,3.33-.47,7.44-.02.32-.13,2.66-.09,5.36,0,0,.01,1.2.19,2.92.09.85.18,1.46.38,2.16.18.64.25.63.47,1.32.64,1.96.4,2.87,1.13,3.39.32.23.64.25.94.28,1.06.1,2.36-.37,2.82-1.32.17-.34.14-.98.09-2.26-.02-.58-.05-.74-.09-1.41-.01-.19-.1-1.58-.09-3.11,0-1,.05-.8.09-2.45.06-1.95,0-2.13.09-3.11.05-.54.13-1.3.38-2.26.22-.86.31-.87.66-2.07.41-1.39.31-1.47.62-2.27.18-.45.15-.27.89-1.81.54-1.12.61-1.32.93-1.86.29-.49.37-.55.85-1.3.54-.83.67-1.11,1.04-1.69.93-1.5,1.4-2.24,2.26-2.92,0,0,.11-.09,1.98-1.22.35-.19.84-.39,1.13-.19.43.3.04,1.26-.09,2.73-.12,1.35.15,1.21.28,3.95.11,2.35-.08,2.48.19,3.48.23.83.62,2.3,1.88,2.92.77.38,1.55.28,2.35.19.76-.09,1.58-.19,2.16-.75.56-.53.65-1.23.75-2.54.19-2.5.18-4.59.19-5.27,0-1.17.01-2.45.19-3.95.21-1.83.58-4.74,2.35-7.62.71-1.16.85-1.01,1.41-2.07.65-1.22,1.89-3.57,1.13-5.65-.49-1.32-.9-1.13-1.69-3.01-1.01-2.37-.83-3.72-1.25-3.74Z"/>
    <path class="hand-part" d="m13.17,289.37c.61.16.75,3.64-.66,6.67-.73,1.57-.38,2.24-1.79,3.11-.59.36-.66,1.04-.56,5.27.05,2.38-.1,4.77-.09,7.15,0,.91.01,1.75-.55,2.49-.81,1.06-2.55,1.6-3.4.99-.66-.47-.39-1.35-.38-4.61.01-3.36-.27-3.39-.09-5.74.11-1.48.22-2.81.75-4.52.36-1.15.81-1.99,1.69-3.67.93-1.76,1.36-1.75,2.92-4.03,1.59-2.32,1.85-3.19,2.16-3.11Z"/>
    <path class="shoulders" d="m87.62,145.6c.54-2.16,1.13-3.39,1.13-3.39,1.1-2.28.63-2.19,2.82-7.81,2.08-5.32,3.96-9.14,4.42-10.07,1.48-2.99,2.23-4.48,3.2-5.84,2.53-3.53,5.39-5.47,7.62-6.96,6.3-4.21,12.39-5.51,15.81-6.21.75-.15,2.86-.57,5.65-.83,1.5-.14,5.81-.53,10.26-.02,7.48.86,14.42,4.15,14.16,5.36-.16.76-3.04.02-7.88,1.7-2.23.78-3.98,1.75-5.11,2.39-1.94,1.09-3.23,2.05-5.22,3.53-2.68,1.99-4.35,3.23-6.15,5-2.47,2.43-1.55,2.26-5.11,6.33-3.19,3.64-6.16,6.31-8.22,8.03-.3.25-.53.44-.85.7-3.21,2.57-5.64,4.48-9.41,5.74-4,1.34-7.91,1.98-7.91,1.98-2.64.43-3.7.37-5.55,1.22-2.08.95-3.31,2.21-3.86,1.79-.38-.29-.17-1.2.19-2.64Z"/>
    <path class="hand-part" d="m340.84,289.37c-.61.16-.75,3.64.66,6.67.73,1.57,1.11,1.6,1.79,3.11.53,1.17.55,2.56.56,5.27.02,2.38.1,4.77.09,7.15,0,.91-.01,1.75.55,2.49.81,1.06,2.55,1.6,3.4.99.66-.47.39-1.35.38-4.61-.01-3.36.27-3.39.09-5.74-.11-1.48-.22-2.81-.75-4.52-.36-1.15-.81-1.99-1.69-3.67-.93-1.76-1.36-1.75-2.92-4.03-1.59-2.32-1.85-3.19-2.16-3.11Z"/>
    <path class="lat" d="m110.77,169.26c.18,3.52.12,3.98.42,5.36.39,1.76.8,2.36,1.07,4.37.2,1.49.03,1.83.21,3.28.24,1.87.55,3.4,1.13,4.94,2.79,7.4,2.75,7.32,2.82,7.48,2.58,6.15,2.52,6.46,3.11,7.34.31.47,1.58,2.33,2.82,4.47.34.59.69,1.21.69,1.22.26.46.62,1.11,1.63,3.01.67,1.26,1,1.89,1.25,2.38.53,1.06.96,1.96,1.12,2.32,1.21,2.68,1.81,5.9,1.89,6.34.38,2.1.54,4.34.26,9.75-.19,3.77-.51,6.79-1.14,12.82-.48,4.63-.73,6.95-1.13,9.78-.3,2.09-.4,4.22-.88,6.27-.62,2.66-1.42,4.64-.63,5.27.28.22.55.12,2.26,0,1.71-.12,1.99-.06,2.76-.13,2.45-.21,4.61-1.26,5.85-1.86,1.5-.73,3.43-1.66,5.32-3.53,3.41-3.38,4.35-7.47,4.77-9.28.49-2.13.55-3.94.63-5.9.07-1.8,0-3.17-.13-5.9-.15-3.14-.24-3.25-.38-6.02-.08-1.67-.19-4.11-.13-7.28.07-3.3.3-5.81.38-6.65.22-2.33.48-4.02,1-7.4.24-1.56.49-3.19.88-5.39.64-3.66.87-4.4,1-6.27.18-2.49.27-3.73-.13-4.89-.53-1.56-1.37-2.13-5.52-5.77-2.19-1.92-2.46-2.2-3.09-2.77-.1-.09-.7-.63-1.42-1.24-1.19-1.01-15.13-12.72-15.18-12.67-.02.02,1.78,1.55,8.78,7.4,0,0,0,0,0,0-.01-.01-1.22-1.06-3.63-3.14-1.12-.74-3.08-2.13-5.15-4.26-6.43-6.6-5.93-12.29-12.69-18.71-2.83-2.68-5.98-4.78-6.21-4.52-.14.16,2.84,1.89,4.24,5.36.47,1.18.32,1.44.71,8.05.25,4.25.27,3.36.42,6.35Z"/>
    <path class="abdominal" d="m167.53,165.31c-2.08.06-3.7.4-4.8.71-1.92.53-2.48,1-5.51,1.98-2.33.75-2.17.52-3.25.99-2.21.95-3.51,2.18-4.8,3.39-1.53,1.43-1.76,2.05-1.84,2.54-.07.46.05,1.06.28,2.26.1.52.23,1.11.56,2.4.41,1.58.75,2.77.85,3.11.44,1.54.8,2.66.85,2.82,1.25,4.03.71,10.16.71,10.16-.51,5.8.13,21.28,1.41,52.24.03.7.01,1.78.14,3.25.54,6.21,2.52,10.91,4.52,15.67,1.01,2.42,1.92,4.25,2.82,6.07,1.31,2.64,1.86,3.54,2.12,3.95.91,1.45,1.69,2.42,3.25,4.38.91,1.14,1.8,2.25,3.11,3.67.96,1.05,1.75,1.91,2.96,2.96.2.17,1.17.92,3.11,2.4,1.34,1.03,1.72,1.31,2.4,1.55.1.03,1.32.46,2.68.28,1.86-.24,2.98-1.46,5.36-3.95,4.5-4.7,3.76-3.73,4.66-4.8,1.3-1.53,3.93-4.83,6.49-9.6,2.52-4.7,3.75-8.54,4.94-12.28,1.21-3.78,1.91-6.84,2.26-8.47,1.08-5.06,1.46-8.97,1.55-10.02.26-2.91.12-3.23.28-11.86.1-5.2.14-7.79.28-10.31.29-5.34.58-5.96.71-10.45.08-2.75-.03-2.3,0-8.33.04-6.77.17-5.46.14-9.18-.04-5.13-.28-5.88.28-7.91.55-1.98,1.09-2.38,1.84-5.22.71-2.71,1.08-4.18.42-5.65-.45-1.01-1.24-1.69-3.95-3.11-3.98-2.08-7.2-3.2-7.34-3.25,0,0-4.71-1.61-13.84-2.54-.6-.06-1.62-.15-2.54.42-.62.39-.98.97-1.69,2.12-.44.71-.75,1.21-.99,1.98-.23.75-.42,1.84-.42,1.84,0,0-.52-2.7-.99-3.67-.62-1.3-2.63-2.65-9.04-2.54"/>
    <path class="cls-1" d="m155.47,194.86c1.68-.57,3.7-1.17,6.02-1.69,1.89-.42,4.07-.91,6.96-1.13,3.99-.3,5.98-.45,6.4-.38.61.1,1.48.3,2.07-.19.61-.5.55-1.41.56-3.01,0-1.01.04-2.49.19-4.33"/>
    <path class="cls-1" d="m201.7,194.9c-1.68-.57-3.7-1.17-6.02-1.69-1.89-.42-4.07-.91-6.96-1.13-3.99-.3-5.98-.45-6.4-.38-.61.1-1.48.3-2.07-.19-.61-.5-.55-1.41-.56-3.01,0-1.01-.04-2.49-.19-4.33"/>
    <path class="cls-1" d="m162.23,196.69c2.51-.5,5.28-.9,8.28-1.13,1.37-.1,2.69-.16,3.95-.19.37.06,1.69.32,2.64,1.51,1.48,1.86.61,4.22.56,4.33"/>
    <path class="cls-1" d="m194.31,196.69c-2.51-.5-5.28-.9-8.28-1.13-1.37-.1-2.69-.16-3.95-.19-.37.06-1.69.32-2.64,1.51-1.48,1.86-.61,4.22-.56,4.33"/>
    <path class="cls-1" d="m156.16,212.85c1.61.09,3.8.19,6.4.19,2,0,3.83,0,6.21-.19,3.54-.28,5.04.04,6.78-.94.79-.45,1.45-.83,1.88-1.51.42-.66.54-1.34.56-3.01.02-1.1-.01-2.57-.19-4.33"/>
    <path class="cls-1" d="m200.5,212.59c-1.61.09-3.8.19-6.4.19-2,0-3.83,0-6.21-.19-3.54-.28-5.04.04-6.78-.94-.79-.45-1.45-.83-1.88-1.51-.42-.66-.54-1.34-.56-3.01-.02-1.1.01-2.57.19-4.33"/>
    <path class="cls-1" d="m162.09,215.92c2.51-.5,5.28-.9,8.28-1.13,1.37-.1,2.69-.16,3.95-.19.37.06,1.69.32,2.64,1.51,1.48,1.86.61,4.22.56,4.33"/>
    <path class="cls-1" d="m193.61,215.92c-2.51-.5-5.28-.9-8.28-1.13-1.37-.1-2.69-.16-3.95-.19-.37.06-1.69.32-2.64,1.51-1.48,1.86-.61,4.22-.56,4.33"/>
    <path class="cls-1" d="m154.98,233.48c1.61.09,3.8.19,6.4.19,2,0,3.83,0,6.21-.19,3.54-.28,5.04.04,6.78-.94.79-.45,1.45-.83,1.88-1.51.42-.66.54-1.34.56-3.01.02-1.1-.01-2.57-.19-4.33"/>
    <path class="cls-1" d="m199.9,232.76c-1.61.09-3.8.19-6.4.19-2,0-3.83,0-6.21-.19-3.54-.28-5.04.04-6.78-.94-.79-.45-1.45-.83-1.88-1.51-.42-.66-.54-1.34-.56-3.01-.02-1.1.01-2.57.19-4.33"/>
    <path class="cls-1" d="m160.83,238.45c2.93.19,5.26.31,6.78.38,2.08.1,4.14.46,6.21.56,1.65.08,2.82.08,3.58.94.17.19.49.63.75,2.64.19,1.46.21,2.7.19,3.58"/>
    <path class="cls-1" d="m195.76,237.81c-2.93.19-5.26.31-6.78.38-2.08.1-4.14.46-6.21.56-1.65.08-2.82.08-3.58.94-.17.19-.49.63-.75,2.64-.19,1.46-.21,2.7-.19,3.58"/>
    <path class="cls-1" d="m177.9,252.18v34.82"/>
    <path class="quad" d="m230.03,266.76c.53.2.49.98.94,4.52.63,4.92.74,3.67,1.51,9.6.63,4.86.46,4.94.94,7.15.39,1.78.86,3.37,1.69,6.21.86,2.93,1.03,3.22,1.51,5.08.47,1.83.55,2.5,1.13,5.27.51,2.42.64,2.81,1.32,5.84,1.26,5.62,1.9,8.44,2.26,11.11.32,2.33.2,2.35.75,6.78.38,3.05.43,3.02.75,5.65.46,3.74.47,4.69.94,8.85.43,3.79.6,3.87.75,6.02.15,2.2.17,4.4.19,5.84,0,.78,0,.98,0,3.95,0,2.26,0,3.81,0,4.14,0,20.46-2.64,36.71-2.64,36.71-1.01,6.25-.79,2.5-2.26,9.98-.22,1.14-.89,4.57-3.01,8.09-.59.98-1.15,1.72-2.07,2.26-1.69.98-4.14,1.01-5.84,0-.78-.47-.88-.84-1.69-1.13-.23-.08-1.97-.7-3.2.19-.27.19-.53.47-1.13,1.88-.68,1.6-1.04,2.89-1.13,3.2-.57,2.06-.67,2.61-1.13,4.33-.6,2.24-.92,3.37-1.32,3.95-1.29,1.86-3.26,2.48-3.76,2.64-1.44.44-2.61.3-3.58.19-.77-.09-3.16-.4-5.46-2.07-1.25-.91-2.16-2.31-3.95-5.08-1.68-2.61-2.53-3.91-3.2-5.65-.88-2.27-.69-3.11-1.32-6.96-.8-4.91-1.27-4.53-2.45-10.73-.64-3.36-.51-3.53-1.32-7.72-.71-3.68-.89-3.94-1.13-5.84-.41-3.25-.71-5.59,0-8.28.77-2.9,2.73-5.09,4.14-6.78.84-1.01,1.1-1.18,1.8-1.96,1.85-2.08,2.96-4.19,5.17-9.71,1.97-4.92,2.96-7.38,3.48-9.29.35-1.3.73-3.18,1.49-6.95.64-3.17.99-4.93,1.39-7.45.15-.96.43-2.97.98-6.99.37-2.65.45-3.35.53-3.95.37-3.05.44-4.53,1.17-9.6.64-4.49,1.02-6.52,1.69-11.67.56-4.29.66-5.69.94-7.91.83-6.57,1.87-14.89,6.02-23.34,2.53-5.14,6.5-10.95,8.09-10.35Z"/>
    <path class="cls-1" d="m124.89,266.27c-.23.44,2.13,1.58,4.52,3.95,3.47,3.43,4.75,7.21,6.63,12.92,1.63,4.96,2.32,8.77,3.11,13.27.64,3.65,1.09,7.47,1.98,15.11.81,6.97.81,7.77,1.41,12.14.37,2.68.83,5.5,1.74,11.12,1.57,9.63,2.08,12.2,2.45,13.93,1.2,5.72,2,8.31,2.82,10.54.07.18.91,2.12,2.59,6.01,2.13,4.91,3.23,7.41,5.13,9.43,1.31,1.4,1.36,1.06,2.45,2.26,3.47,3.86,2.93,8.4,3.95,8.47,1.01.07,1.68-4.34,3.95-10.73,2.02-5.69,2.93-6.24,4.71-11.29,1.06-3.04,1.67-6.18,3.01-12.42.99-4.63,1.31-6.73,1.51-8.28.53-4.15.56-7.02.56-8.09,0-2.05.74-3.61-.19-4.71-.57-.67-1.05-.46-2.64-1.32-1.26-.68-2.03-1.38-3.39-2.64-.24-.22-1.81-1.67-3.01-3.2-1.26-1.6-2.27-3.47-4.14-9.41-1.36-4.3-1.22-4.58-2.45-8.47-.49-1.56-1.49-4.73-3.01-8.47-2.05-5.05-3.28-8.06-5.84-11.67-2.93-4.13-6-6.77-7.15-7.72-1.82-1.49-3.43-2.53-6.21-4.33-2.39-1.54-3.91-2.52-6.02-3.58-3.54-1.76-8.15-3.43-8.47-2.82Z"/>
    <path class="cls-1" d="m230.71,266.27c.23.44-2.13,1.58-4.52,3.95-3.47,3.43-4.75,7.21-6.63,12.92-1.63,4.96-2.32,8.77-3.11,13.27-.64,3.65-1.09,7.47-1.98,15.11-.81,6.97-.81,7.77-1.41,12.14-.37,2.68-.83,5.5-1.74,11.12-1.57,9.63-2.08,12.2-2.45,13.93-1.2,5.72-2,8.31-2.82,10.54-.07.18-.91,2.12-2.59,6.01-2.13,4.91-3.23,7.41-5.13,9.43-1.31,1.4-1.36,1.06-2.45,2.26-3.47,3.86-2.93,8.4-3.95,8.47-1.01.07-1.68-4.34-3.95-10.73-2.02-5.69-2.93-6.24-4.71-11.29-1.06-3.04-1.67-6.18-3.01-12.42-.99-4.63-1.31-6.73-1.51-8.28-.53-4.15-.56-7.02-.56-8.09,0-2.05-.74-3.61.19-4.71.57-.67,1.05-.46,2.64-1.32,1.26-.68,2.03-1.38,3.39-2.64.24-.22,1.81-1.67,3.01-3.2,1.26-1.6,2.27-3.47,4.14-9.41,1.36-4.3,1.22-4.58,2.45-8.47.49-1.56,1.49-4.73,3.01-8.47,2.05-5.05,3.28-8.06,5.84-11.67,2.93-4.13,6-6.77,7.15-7.72,1.82-1.49,3.43-2.53,6.21-4.33,2.39-1.54,3.91-2.52,6.02-3.58,3.54-1.76,8.15-3.43,8.47-2.82Z"/>
    <path class="quad" d="m125.76,266.76c-.53.2-.49.98-.94,4.52-.63,4.92-.74,3.67-1.51,9.6-.63,4.86-.46,4.94-.94,7.15-.39,1.78-.86,3.37-1.69,6.21-.86,2.93-1.03,3.22-1.51,5.08-.47,1.83-.55,2.5-1.13,5.27-.51,2.42-.64,2.81-1.32,5.84-1.26,5.62-1.9,8.44-2.26,11.11-.32,2.33-.2,2.35-.75,6.78-.38,3.05-.43,3.02-.75,5.65-.46,3.74-.47,4.69-.94,8.85-.43,3.79-.6,3.87-.75,6.02-.15,2.2-.17,4.4-.19,5.84,0,.78,0,.98,0,3.95,0,2.26,0,3.81,0,4.14,0,20.46,2.64,36.71,2.64,36.71,1.01,6.25.79,2.5,2.26,9.98.22,1.14.89,4.57,3.01,8.09.59.98,1.15,1.72,2.07,2.26,1.69.98,4.14,1.01,5.84,0,.78-.47.88-.84,1.69-1.13.23-.08,1.97-.7,3.2.19.27.19.53.47,1.13,1.88.68,1.6,1.04,2.89,1.13,3.2.57,2.06.67,2.61,1.13,4.33.6,2.24.92,3.37,1.32,3.95,1.29,1.86,3.26,2.48,3.76,2.64,1.44.44,2.61.3,3.58.19.77-.09,3.16-.4,5.46-2.07,1.25-.91,2.16-2.31,3.95-5.08,1.68-2.61,2.53-3.91,3.2-5.65.88-2.27.69-3.11,1.32-6.96.8-4.91,1.27-4.53,2.45-10.73.64-3.36.51-3.53,1.32-7.72.71-3.68.89-3.94,1.13-5.84.41-3.25.71-5.59,0-8.28-.77-2.9-2.73-5.09-4.14-6.78-.84-1.01-1.1-1.18-1.8-1.96-1.85-2.08-2.96-4.19-5.17-9.71-1.97-4.92-2.96-7.38-3.48-9.29-.35-1.3-.73-3.18-1.49-6.95-.64-3.17-.99-4.93-1.39-7.45-.15-.96-.43-2.97-.98-6.99-.37-2.65-.45-3.35-.53-3.95-.37-3.05-.44-4.53-1.17-9.6-.64-4.49-1.02-6.52-1.69-11.67-.56-4.29-.66-5.69-.94-7.91-.83-6.57-1.87-14.89-6.02-23.34-2.53-5.14-6.5-10.95-8.09-10.35Z"/>
    <path class="cls-1" d="m118.63,418.52c-1,.42,1.5,5.24.46,11.48-.23,1.4-.91,4.54-.94,4.71-.53,2.47-.7,3.03-1.13,5.08-1.08,5.09-1.09,6.44-.38,6.96.56.4,1.1-.03,2.07.56.59.36.57.63,1.51,1.69.93,1.05,1.17,1.02,1.88,1.88.58.7.69,1.04,1.32,2.07.21.34,1.2,1.97,2.26,3.2.5.58,1.64,1.89,3.39,2.82,2.57,1.38,5.09,1.22,6.21,1.13,3.27-.25,5.55-1.71,6.96-2.64,1.85-1.21,3.36-3.07,6.4-6.78,2.02-2.46,3.05-3.73,4.2-5.77,1.11-1.98,1.73-3.63,2.36-5.31.74-1.95,1.46-3.87,1.97-6.55.33-1.76.41-3.37.56-6.59.11-2.29.33-6.82-.09-6.87-.47-.06-1.41,5.38-3.15,8.03-.42.64-1.51,2.06-2.16,2.82-1.04,1.22-1.14.99-2.73,2.73-.66.73-.88,1.02-1.41,1.32-.74.41-1.82.66-2.21.75-.18.04-.33.07-.43.09-1.12.23-2.02.21-2.73.19-.85-.02-1.72-.05-2.82-.38-.96-.28-1.61-.65-1.79-.75-.35-.2-.99-.58-1.6-1.22-.24-.26-.77-.87-1.51-2.82-.31-.83-.53-1.54-.85-2.73-.49-1.82-.58-2.36-1.04-4.14-.8-3.12-1.1-3.67-1.69-4.05-.88-.55-1.93-.42-2.26-.38-1.1.14-1.45.66-2.45,1.13-1.79.85-3.93.74-5.36.19-1.89-.72-2.31-2.1-2.82-1.88Z"/>
    <path class="cls-1" d="m237.67,418.37c1,.42-1.5,5.24-.46,11.48.23,1.4.91,4.54.94,4.71.53,2.47.7,3.03,1.13,5.08,1.08,5.09,1.09,6.44.38,6.96-.56.4-1.1-.03-2.07.56-.59.36-.57.63-1.51,1.69-.93,1.05-1.17,1.02-1.88,1.88-.58.7-.69,1.04-1.32,2.07-.21.34-1.2,1.97-2.26,3.2-.5.58-1.64,1.89-3.39,2.82-2.57,1.38-5.09,1.22-6.21,1.13-3.27-.25-5.55-1.71-6.96-2.64-1.85-1.21-3.36-3.07-6.4-6.78-2.02-2.46-3.05-3.73-4.2-5.77-1.11-1.98-1.73-3.63-2.36-5.31-.74-1.95-1.46-3.87-1.97-6.55-.33-1.76-.41-3.37-.56-6.59-.11-2.29-.33-6.82.09-6.87.47-.06,1.41,5.38,3.15,8.03.42.64,1.51,2.06,2.16,2.82,1.04,1.22,1.14.99,2.73,2.73.66.73.88,1.02,1.41,1.32.74.41,1.82.66,2.21.75.18.04.33.07.43.09,1.12.23,2.02.21,2.73.19.85-.02,1.72-.05,2.82-.38.96-.28,1.61-.65,1.79-.75.35-.2.99-.58,1.6-1.22.24-.26.77-.87,1.51-2.82.31-.83.53-1.54.85-2.73.49-1.82.58-2.36,1.04-4.14.8-3.12,1.1-3.67,1.69-4.05.88-.55,1.93-.42,2.26-.38,1.1.14,1.45.66,2.45,1.13,1.79.85,3.93.74,5.36.19,1.89-.72,2.31-2.1,2.82-1.88Z"/>
    <path class="cls-1" d="m116.28,447.86c-.88.32-1.3,1.91-2.12,5.08-1.1,4.29-1.65,6.44-1.69,6.64-.52,2.46-.85,4.25-1.84,9.74-1.17,6.51-1.28,7.23-1.41,8.47-.17,1.63-.26,3.65-.42,7.62-.19,4.64-.29,6.97-.28,9.88,0,2.9,0,5.43.28,8.75.16,1.98.28,2.46,1.27,9.32.77,5.31,1.16,7.97,1.55,11.01.61,4.71.59,5.13,1.13,8.89.68,4.81.79,4.59,1.13,7.48.66,5.5.6,8.93.56,10.31-.09,2.97-.14,4.48-.71,6.21-.34,1.04-.74,1.86-.99,3.39-.29,1.79-.02,2.4-.14,3.67-.08.8-.27,1.43-2.68,5.51-2.14,3.63-3.22,5.44-3.81,6.07-1.24,1.32-2.25,1.95-2.96,3.67-.48,1.15-.32,1.56-.85,2.54-.83,1.54-2.13,2.2-3.39,2.96-3.37,2.06-2.65,2.42-5.36,4.24-.99.66-1.78,1.12-2.75,2.12-.38.39-.84.99-1.76,2.19-1.38,1.8-1.65,2.3-1.84,2.68-.51,1.07-.67,1.92-.71,2.12-.23,1.25-.37,1.86-.07,2.33.66,1.01,2.53.48,2.89,1.41.15.38-.15.5-.07,1.06.16,1.22,1.79,2.35,2.82,2.05.43-.12.63-.46.85-.35.34.16-.11,1.03.28,1.48.59.68,2.42-.31,2.89.35.2.29-.05.58.21,1.06.26.47.78.66.92.71,1.52.54,2.87-1.52,4.31-1.06.58.19.6.6,1.2,1.2,1.59,1.61,4.66,1.94,6.92,1.06,1.65-.64,3.11-2.03,3.88-3.39.25-.45.51-1.01,1.13-1.69.2-.22.85-.9,2.19-1.62,1.31-.71,1.7-.61,2.61-1.06.16-.08,2.16-1.11,3.04-3.11.76-1.75-.12-2.45.71-5.51.24-.9.5-1.5.99-2.05.52-.58.91-.65,2.26-1.34,1.53-.79,1.27-.83,3.25-1.91,1.7-.93,1.83-.86,2.4-1.34.31-.26,1.34-1.16,1.84-2.61.31-.92.22-1.52,0-3.74-.41-4.13-.22-3.42-.42-4.73-.3-1.93-.61-2.86-.85-5.22-.1-1.01-.12-1.64.07-2.4.31-1.2.87-1.61,1.34-2.61.58-1.24.52-2.3.49-3.74-.06-2.87.22-5.74.21-8.61-.01-5.89-.02-5.95,0-6.71.07-2.61.13-4.66.49-7.34.33-2.46.75-4.19,1.55-7.48.48-1.97.93-3.59,1.84-6.85.57-2.03,1.13-4,1.69-5.93,1.38-4.71,2.07-7.07,2.47-8.05.41-1.01.79-1.8,1.06-3.11.28-1.35.15-1.79.56-2.82.26-.64.67-1.2,1.48-2.33.96-1.33,1.12-1.36,1.76-2.33.48-.73.98-1.47,1.34-2.47.3-.84.41-1.58.49-3.04.11-1.94.08-3.47,0-5.86-.08-2.65-.1-2.62-.14-4.16-.08-3.16,0-3.04-.07-4.73-.06-1.42-.23-2.97-.56-6.07-.18-1.7-.18-1.55-.49-4.38-.41-3.71-.37-3.52-.49-4.45-.51-3.67-.69-3.41-.78-5.01-.19-3.53.78-5.68.21-5.92-.39-.16-.89.84-2.82,2.54-.59.52-1.58,1.33-2.82,2.12-1.51.95-2.69,1.69-4.36,1.96-.59.09-1.58.02-3.54-.14-2.03-.16-3.27-.39-4.09-.56-.82-.18-1.23-.27-1.54-.39-1.56-.62-2.39-1.88-3.54-3.69-2.92-4.59-2.96-4.7-3.39-5.17-.78-.85-3.13-3.43-4.8-2.82Z"/>
    <path class="cls-1" d="m240.03,447.86c.88.32,1.3,1.91,2.12,5.08,1.1,4.29,1.65,6.44,1.69,6.64.52,2.46.85,4.25,1.84,9.74,1.17,6.51,1.28,7.23,1.41,8.47.17,1.63.26,3.65.42,7.62.19,4.64.29,6.97.28,9.88,0,2.9,0,5.43-.28,8.75-.16,1.98-.28,2.46-1.27,9.32-.77,5.31-1.16,7.97-1.55,11.01-.61,4.71-.59,5.13-1.13,8.89-.68,4.81-.79,4.59-1.13,7.48-.66,5.5-.6,8.93-.56,10.31.09,2.97.14,4.48.71,6.21.34,1.04.74,1.86.99,3.39.29,1.79.02,2.4.14,3.67.08.8.27,1.43,2.68,5.51,2.14,3.63,3.22,5.44,3.81,6.07,1.24,1.32,2.25,1.95,2.96,3.67.48,1.15.32,1.56.85,2.54.83,1.54,2.13,2.2,3.39,2.96,3.37,2.06,2.65,2.42,5.36,4.24.99.66,1.78,1.12,2.75,2.12.38.39.84.99,1.76,2.19,1.38,1.8,1.65,2.3,1.84,2.68.51,1.07.67,1.92.71,2.12.23,1.25.37,1.86.07,2.33-.66,1.01-2.53.48-2.89,1.41-.15.38.15.5.07,1.06-.16,1.22-1.79,2.35-2.82,2.05-.43-.12-.63-.46-.85-.35-.34.16.11,1.03-.28,1.48-.59.68-2.42-.31-2.89.35-.2.29.05.58-.21,1.06-.26.47-.78.66-.92.71-1.52.54-2.87-1.52-4.31-1.06-.58.19-.6.6-1.2,1.2-1.59,1.61-4.66,1.94-6.92,1.06-1.65-.64-3.11-2.03-3.88-3.39-.25-.45-.51-1.01-1.13-1.69-.2-.22-.85-.9-2.19-1.62-1.31-.71-1.7-.61-2.61-1.06-.16-.08-2.16-1.11-3.04-3.11-.76-1.75.12-2.45-.71-5.51-.24-.9-.5-1.5-.99-2.05-.52-.58-.91-.65-2.26-1.34-1.53-.79-1.27-.83-3.25-1.91-1.7-.93-1.83-.86-2.4-1.34-.31-.26-1.34-1.16-1.84-2.61-.31-.92-.22-1.52,0-3.74.41-4.13.22-3.42.42-4.73.3-1.93.61-2.86.85-5.22.1-1.01.12-1.64-.07-2.4-.31-1.2-.87-1.61-1.34-2.61-.58-1.24-.52-2.3-.49-3.74.06-2.87-.22-5.74-.21-8.61.01-5.89.02-5.95,0-6.71-.07-2.61-.13-4.66-.49-7.34-.33-2.46-.75-4.19-1.55-7.48-.48-1.97-.93-3.59-1.84-6.85-.57-2.03-1.13-4-1.69-5.93-1.38-4.71-2.07-7.07-2.47-8.05-.41-1.01-.79-1.8-1.06-3.11-.28-1.35-.15-1.79-.56-2.82-.26-.64-.67-1.2-1.48-2.33-.96-1.33-1.12-1.36-1.76-2.33-.48-.73-.98-1.47-1.34-2.47-.3-.84-.41-1.58-.49-3.04-.11-1.94-.08-3.47,0-5.86.08-2.65.1-2.62.14-4.16.08-3.16,0-3.04.07-4.73.06-1.42.23-2.97.56-6.07.18-1.7.18-1.55.49-4.38.41-3.71.37-3.52.49-4.45.51-3.67.69-3.41.78-5.01.19-3.53-.78-5.68-.21-5.92.39-.16.89.84,2.82,2.54.59.52,1.58,1.33,2.82,2.12,1.51.95,2.69,1.69,4.36,1.96.59.09,1.58.02,3.54-.14,2.03-.16,3.27-.39,4.09-.56.82-.18,1.23-.27,1.54-.39,1.56-.62,2.39-1.88,3.54-3.69,2.92-4.59,2.96-4.7,3.39-5.17.78-.85,3.13-3.43,4.8-2.82Z"/>
    <path class="hand" d="m326.92,264.72c.38-.02.32,1.04,1.48,1.67.28.15.48.16,2.64,0,1.99-.14,2.16-.17,2.45-.28.71-.27,1.19-.72,2.11-1.61,1.04-.99,1.56-1.49,1.88-2.07,1.07-1.95.1-3.83.59-4.02.61-.24,2.45,2.44,3.6,5.16.51,1.2.86,2.38,1.41,4.14.66,2.1.56,2.1,1.04,3.48.37,1.08.92,2.49,1.69,4.05.35.71.45.85,2.16,3.76.18.3,1.26,2.15,2.45,4.24,1.57,2.76,1.73,3.14,1.88,3.67.09.32.27.99.47,3.86.12,1.68.16,2.85.19,3.67.13,3.42.27,3.33.47,7.44.02.32.13,2.66.09,5.36,0,0-.01,1.2-.19,2.92-.09.85-.18,1.46-.38,2.16-.18.64-.25.63-.47,1.32-.64,1.96-.4,2.87-1.13,3.39-.32.23-.64.25-.94.28-1.06.1-2.36-.37-2.82-1.32-.17-.34-.14-.98-.09-2.26.02-.58.05-.74.09-1.41.01-.19.1-1.58.09-3.11,0-1-.05-.8-.09-2.45-.06-1.95,0-2.13-.09-3.11-.05-.54-.13-1.3-.38-2.26-.22-.86-.31-.87-.66-2.07-.41-1.39-.31-1.47-.62-2.27-.18-.45-.15-.27-.89-1.81-.54-1.12-.61-1.32-.93-1.86-.29-.49-.37-.55-.85-1.3-.54-.83-.67-1.11-1.04-1.69-.93-1.5-1.4-2.24-2.26-2.92,0,0-.11-.09-1.98-1.22-.35-.19-.84-.39-1.13-.19-.43.3-.04,1.26.09,2.73.12,1.35-.15,1.21-.28,3.95-.11,2.35.08,2.48-.19,3.48-.23.83-.62,2.3-1.88,2.92-.77.38-1.55.28-2.35.19-.76-.09-1.58-.19-2.16-.75-.56-.53-.65-1.23-.75-2.54-.19-2.5-.18-4.59-.19-5.27,0-1.17-.01-2.45-.19-3.95-.21-1.83-.58-4.74-2.35-7.62-.71-1.16-.85-1.01-1.41-2.07-.65-1.22-1.89-3.57-1.13-5.65.49-1.32.9-1.13,1.69-3.01,1.01-2.37.83-3.72,1.25-3.74Z"/>
    <path class="forearm" d="m307.74,199.78c2.3,2.4,2.61,2.52,3.67,3.67,1.59,1.71,2.5,3.16,6.92,11.72,1.92,3.73,2.89,5.59,3.39,6.64,2.18,4.54,2.9,6.6,5.08,11.58,2.48,5.66,3.21,6.26,4.38,9.46.32.86.92,2.61,1.98,4.94.83,1.85,1.69,3.53,1.69,3.53,1.19,2.33,1.58,2.8,2.12,4.24.57,1.54.86,2.31.85,3.25-.03,2.53-2.07,5.01-4.52,6.07-2.05.89-5.06,1.06-6.64-.42-.54-.51-.36-.69-1.41-2.12-.35-.48-1.1-1.45-2.68-2.96-1.74-1.66-3.22-2.77-3.67-3.11-4.14-3.11-3.71-3.24-8.19-6.64-4.34-3.29-4.81-3.22-7.62-5.65-1.91-1.65-3.19-2.99-4.8-4.66-2.12-2.21-4.54-4.92-7.06-8.19-2.07-2.68-3.1-4.02-4.09-5.93-.83-1.59-.95-2.19-2.26-4.66-.72-1.36-.8-1.39-2.4-4.24-1.84-3.28-1.76-3.26-2.4-4.24-1.29-1.95-2.96-3.95-2.96-3.95-.34-.4-4.13-4.9-3.7-5.36.3-.32,2.11,1.87,5.27,3.01,3.39,1.22,8.36,1.24,11.86-1.69,2.18-1.83,3-4.16,3.39-5.27,1.28-3.64.74-7.34.56-8.47-.36-2.29-.97-3.53-.56-3.76.51-.3,1.8,1.55,5.2,4.75,2.16,2.04,2.2,1.82,4.09,3.67,1.8,1.76,2.18,2.36,4.52,4.8Z"/>
    <path class="lat" d="m245.15,169.05c-.18,3.52-.12,3.98-.42,5.36-.39,1.76-.8,2.36-1.07,4.37-.2,1.49-.03,1.83-.21,3.28-.24,1.87-.55,3.4-1.13,4.94-2.79,7.4-2.75,7.32-2.82,7.48-2.58,6.15-2.52,6.46-3.11,7.34-.31.47-1.58,2.33-2.82,4.47-.34.59-.69,1.21-.69,1.22-.26.46-.62,1.11-1.63,3.01-.67,1.26-1,1.89-1.25,2.38-.53,1.06-.96,1.96-1.12,2.32-1.21,2.68-1.81,5.9-1.89,6.34-.38,2.1-.54,4.34-.26,9.75.19,3.77.51,6.79,1.14,12.82.48,4.63.73,6.95,1.13,9.78.3,2.09.4,4.22.88,6.27.62,2.66,1.42,4.64.63,5.27-.28.22-.55.12-2.26,0-1.71-.12-1.99-.06-2.76-.13-2.45-.21-4.61-1.26-5.85-1.86-1.5-.73-3.43-1.66-5.32-3.53-3.41-3.38-4.35-7.47-4.77-9.28-.49-2.13-.55-3.94-.63-5.9-.07-1.8,0-3.17.13-5.9.15-3.14.24-3.25.38-6.02.08-1.67.19-4.11.13-7.28-.07-3.3-.3-5.81-.38-6.65-.22-2.33-.48-4.02-1-7.4-.24-1.56-.49-3.19-.88-5.39-.64-3.66-.87-4.4-1-6.27-.18-2.49-.27-3.73.13-4.89.53-1.56,1.37-2.13,5.52-5.77,2.19-1.92,2.46-2.2,3.09-2.77.1-.09.7-.63,1.42-1.24,1.19-1.01,15.13-12.72,15.18-12.67.02.02-1.78,1.55-8.78,7.4,0,0,0,0,0,0,.01-.01,1.22-1.06,3.63-3.14,1.12-.74,3.08-2.13,5.15-4.26,6.43-6.6,5.93-12.29,12.69-18.71,2.83-2.68,5.98-4.78,6.21-4.52.14.16-2.84,1.89-4.24,5.36-.47,1.18-.32,1.44-.71,8.05-.25,4.25-.27,3.36-.42,6.35Z"/>
    <path class="pectoral" d="m255.61,147.38c4.73-.71,8.85.76,8.9.49.05-.23-2.11-.94-4.24-1.41-2.11-.47-3.29-.49-4.66-.66-4.04-.5-7.09-1.96-8.89-2.82-2.7-1.29-4.58-2.65-6.12-3.76-.85-.62-2.32-1.69-4.05-3.29-.72-.67-1.34-1.31-2.58-2.59-1.32-1.36-1.98-2.04-2.69-2.87-1.15-1.36-1.1-1.5-2.37-3.04-.94-1.14-1.69-1.93-2.59-2.89-1.51-1.6-2.83-2.88-3.32-3.33-1.69-1.58-5.58-4.69-10.37-7.02-15.24-7.44-29.2-2.29-30.77-1.51-1.01.5-1.84,1.17-1.84,1.17-1.15.77-2.02,1.53-2.34,2.68-.02.08-.02.1-.17,1.67-.09.98-.14,1.56-.17,1.84-.1,1.19-.07,2.17,0,4.01.11,3.11.14,3.35.17,4.35.04,1.46.02,2.11,0,4.85-.04,4.4-.05,6.6,0,8.53.09,3.18.13,4.77.33,5.85,1.15,6.21,5.09,10.28,6.19,11.37,2.03,2.04,3.88,3.12,5.69,4.18,6.68,3.92,13.03,4.8,16.39,5.02,1.27.08,4.21.21,8.03-.33,0,0,15.06-2.16,29.76-15.98,0,0,.07-.06.07-.06,0,0-.07.06-.07.06.01.02,1.97-1.96,4.62-2.98.59-.23,1.55-.43,3.48-.83,1.26-.26,2.79-.55,3.62-.68Z"/>
    <path class="shoulders" d="m264.35,145.06c-.54-2.16-1.13-3.39-1.13-3.39-1.1-2.28-.63-2.19-2.82-7.81-2.08-5.32-3.96-9.14-4.42-10.07-1.48-2.99-2.23-4.48-3.2-5.84-2.53-3.53-5.39-5.47-7.62-6.96-6.3-4.21-12.39-5.51-15.81-6.21-.75-.15-2.86-.57-5.65-.83-1.5-.14-5.8-.53-10.26-.02-7.48.86-14.42,4.15-14.16,5.36.16.76,3.04.02,7.88,1.7,2.23.78,3.98,1.75,5.11,2.39,1.94,1.09,3.23,2.05,5.22,3.53,2.68,1.99,4.35,3.23,6.15,5,2.47,2.43,1.55,2.26,5.11,6.33,3.19,3.64,6.16,6.31,8.22,8.03.3.25.53.44.85.7,3.21,2.57,5.64,4.48,9.41,5.74,4,1.34,7.91,1.98,7.91,1.98,2.64.43,3.7.37,5.55,1.22,2.08.95,3.31,2.21,3.86,1.79.38-.29.17-1.2-.19-2.64Z"/>
    <path class="cls-1" d="m152.86,69.03c-1.23-2.09-1.73-1.86-2.34-3.21-.73-1.62-.27-2.57-1.03-2.99-.65-.37-1.18.24-2.26,0-.29-.07-1-.27-2.12-1.55-.68-.78-1.62-2.1-2.4-4.38-.99-2.9-1.01-5.27-1.01-6.5,0-2.36.39-3.65.59-4.23.35-1.02.81-2.29,1.98-2.96.77-.44,1.08-.2,1.41-.56.88-.97-.81-3.37-1.84-6.49-.71-2.17-.82-3.8-.99-6.49-.25-3.92.22-6.79.71-9.74.99-6.04,2.19-7.3,2.54-7.62.07-.06.61-.65,1.69-1.84.56-.61.84-.93.85-1.27,0-.83-1.15-1-1.27-1.84-.12-.88,1-1.96,2.12-2.4,1.48-.59,2.49.13,3.11-.56.57-.64-.11-1.47.42-2.12.59-.72,2.06-.49,4.38-.14,1.86.28,2.47.58,3.11.14.65-.45.61-1.15,1.41-1.55.62-.31,1.24-.19,1.55-.14,1.66.27.18-.35,6.21.14,1.99.16,3.49.34,6.49.71,2.31.28,3.48.42,4.24.56,1.32.25,3.49.73,6.07,1.69.42.16,2.43.91,4.94,2.26,1.96,1.05,3.37,2,3.95,2.4,1.95,1.34,3.1,2.14,4.38,3.53,1.77,1.93,2.65,3.81,3.11,4.8,1.12,2.43,1.47,4.46,1.69,5.79.42,2.54.35,4.47.28,6.49-.09,2.41-.15,4.25-.71,6.64-.76,3.26-1.93,5.41-1.13,6.07.4.33.82-.09,1.69.14,1.59.43,2.35,2.39,2.68,3.25.52,1.33.54,2.69.56,5.36.02,1.78.02,3.25-.28,5.22-.21,1.35-.38,2.4-.99,3.67-.62,1.29-1.09,2.29-2.12,2.82-1.73.91-3.11-.43-4.38.56-.49.39-.71,1.15-1.15,2.67-.52,1.79-.3,2.18-.85,3.67-.41,1.13-.91,1.92-1.13,2.26-.36.54-.93,1.3-1.84,2.12-1.57,1.41-2.79,1.8-5.23,3.07-3.33,1.74-2.75,1.91-4.89,2.82-1.23.53-.79.2-5.65,1.69-2.2.68-3,.96-4.33.94-1.08-.02-1.87-.22-3.2-.56-1.37-.36-1.65-.55-4.33-1.51-2.98-1.06-3.06-.97-4.14-1.51-.6-.3-1.47-.82-3.2-1.88-1.45-.88-2.18-1.33-2.64-1.69-1.3-1.03-2.18-2.08-2.64-2.64-.56-.67-.95-1.23-1.13-1.51-.48-.71-.7-1.15-.98-1.62Z"/>
    <path class="cls-1" d="m154.73,73.19c-.42,19.62-.19,26.77.19,28.99.06.35.29,1.52,0,3.01-.4,2.1-1.59,3.62-2.45,4.52"/>
    <path class="cls-1" d="m196.42,73.19c.42,19.62.19,26.77-.19,28.99-.06.35-.29,1.52,0,3.01.4,2.1,1.59,3.62,2.45,4.52"/>
    <path class="cls-1" d="m122.2,104.85c.63-.35,1.61-.9,2.81-1.61,2.6-1.55,2.93-1.92,4.43-2.65,1.51-.73,1.49-.51,3.66-1.49,1.65-.74,1.78-.95,3.59-1.77,1.13-.51,2-.86,3.21-1.33,1.66-.66,2.49-.98,3.16-1.17.2-.06.76-.22,1.51-.49.27-.1.57-.22.97-.4,2.54-1.14,4.32-2.48,5.27-3.2,1.44-1.09,2.56-2.16,3.39-3.01"/>
    <path class="cls-1" d="m229.06,104.74c-.63-.35-1.61-.9-2.81-1.61-2.6-1.55-2.93-1.92-4.43-2.65-1.51-.73-1.49-.51-3.66-1.49-1.73-.78-1.82-.96-3.59-1.77-1.41-.65-2.47-1.04-4.14-1.69-3.12-1.21-3.04-.95-4.71-1.69-2.54-1.14-4.32-2.48-5.27-3.2-1.44-1.09-2.56-2.16-3.39-3.01"/>
    <path class="calves" d="m144.07,504.59c-1.16-.82-2.42-1.84-3.67-3.11-1.62-1.64-2.6-3.07-2.82-3.39-.78-1.15-1.67-2.45-2.26-4.24-.17-.53-.62-2-.56-5.36.05-2.9.41-3.75.85-7.62.5-4.37.11-3.9.56-7.06.55-3.78,1.13-4.68,1.41-7.91.2-2.29.1-4.17,0-5.36"/>
    <path class="calves" d="m212.45,504.79c1.16-.82,2.42-1.84,3.67-3.11,1.62-1.64,2.6-3.07,2.82-3.39.78-1.15,1.67-2.45,2.26-4.24.17-.53.62-2,.56-5.36-.05-2.9-.41-3.75-.85-7.62-.5-4.37-.11-3.9-.56-7.06-.55-3.78-1.13-4.68-1.41-7.91-.2-2.29-.1-4.17,0-5.36"/>
  </g>
</svg>